<svg width="880" height="779" viewBox="0 0 880 779" fill="none" xmlns="http://www.w3.org/2000/svg">
<path opacity="0.15" d="M612.47 776H389.248V775.939H386.248H324.22L3 246.86V190.278H148.715L414.29 633.665L417.098 638.353L417.255 638.04L423.614 648.694L424.487 650.156H426.19H568.783H570.484L571.357 648.697L577.74 638.032L577.9 638.352L580.71 633.661L846.285 190.274H992V246.856L670.781 775.933L615.473 775.869L612.47 775.865V776ZM695.756 3H841.635V59.529L530.727 571.865H466.98L411.063 477.056L695.756 3ZM368.055 404.068L280.791 255.708L318.867 191.943H464.794V248.561L368.055 404.068Z" stroke="white" stroke-width="6"/>
</svg>
