<svg id="Layer_1" xmlns="http://www.w3.org/2000/svg" width="145.589" height="14.516" viewBox="0 0 145.589 14.516"><g fill-rule="evenodd" clip-rule="evenodd"><path fill="#FFF" d="M48.448 14.516l6.004-9.9V3.49h-2.8l-4.96 8.29-.003-.006-.834 1.395v1.344zM22.71 5.946h6.85c.404-.018.74.106 1.006.37.274.24.412.547.412.92v3.54c0 .347-.138.65-.412.91-.267.234-.602.36-1.006.374h-6.85c-.394-.005-.732-.126-1.004-.368a1.215 1.215 0 0 1-.412-.918v-3.54c0-.37.137-.677.412-.91a1.39 1.39 0 0 1 1.005-.38m-.88-2.454c-.984 0-1.82.316-2.51.942-.688.63-1.03 1.387-1.03 2.278v4.587c0 .89.342 1.65 1.03 2.278.69.63 1.526.94 2.51.94h8.618c.99 0 1.824-.312 2.51-.94.693-.627 1.036-1.388 1.03-2.278V6.71c.006-.892-.337-1.65-1.03-2.28-.685-.624-1.52-.94-2.51-.94H21.83zM0 3.49v11.026h3.008V6.784l9.53 7.732h3.02V3.49h-3.02v7.743L3.008 3.49zm133.548 2.455h7.59c.435-.005.79.12 1.063.38.28.238.42.562.42.963 0 .387-.14.71-.42.967-.27.237-.626.36-1.06.377h-7.59V5.945zM130.54 3.49v11.026h3.008v-3.444h7.873a4.4 4.4 0 0 0 2.094-.5 3.883 3.883 0 0 0 1.515-1.376c.375-.583.562-1.22.562-1.907a3.46 3.46 0 0 0-.554-1.91 3.906 3.906 0 0 0-1.522-1.384 4.367 4.367 0 0 0-2.09-.508H130.54zm-14.878 2.455h7.527c.352-.017.632.082.84.297.227.195.336.45.33.774a.984.984 0 0 1-.33.772c-.21.204-.487.305-.843.305l-7.528-.008v-2.14zm-3.008-2.455v11.026h3.008v-4h5.03l3.316 4h2.818v-.77l-2.906-3.27c.978-.114 1.794-.49 2.447-1.136.654-.66.98-1.436.98-2.332 0-.972-.376-1.802-1.134-2.49-.755-.686-1.668-1.03-2.736-1.03h-10.823zm-14.51 2.455h6.847c.407-.017.74.107 1.01.37.273.24.41.548.41.92v3.54c0 .348-.137.65-.41.91-.27.235-.603.36-1.007.375h-6.847c-.396-.005-.734-.126-1.006-.368a1.22 1.22 0 0 1-.413-.918v-3.54c0-.37.138-.677.412-.91.27-.258.61-.384 1.004-.38M97.26 3.49c-.984 0-1.82.316-2.51.942-.69.63-1.03 1.387-1.03 2.278v4.587c0 .89.342 1.65 1.03 2.278.69.63 1.525.94 2.51.94h8.618c.988 0 1.823-.312 2.51-.94.692-.627 1.036-1.388 1.03-2.278V6.71c.006-.892-.338-1.65-1.03-2.28-.687-.625-1.52-.94-2.51-.94H97.26zm-18.698 0c-.98 0-1.81.316-2.502.942-.693.63-1.04 1.387-1.04 2.278v4.587c0 .89.344 1.65 1.03 2.278.692.63 1.528.94 2.512.94h8.38c.984 0 1.822-.312 2.51-.94.692-.627 1.035-1.388 1.03-2.278v-.692H87.47v.17c0 .35-.137.65-.408.91-.27.236-.605.362-1.01.376h-6.605a1.495 1.495 0 0 1-.998-.365c-.28-.258-.42-.563-.42-.918v-3.54c0-.37.135-.677.41-.91a1.41 1.41 0 0 1 1.005-.38h6.605c.405-.016.74.108 1.01.372.27.24.41.546.41.917v.183h3.01v-.71c.006-.89-.337-1.65-1.03-2.278-.687-.624-1.525-.94-2.51-.94h-8.38zM60.677 5.945h6.85c.403-.017.738.107 1.005.37.274.24.412.548.412.92v3.54c0 .348-.138.65-.412.91-.267.235-.602.36-1.006.375h-6.85c-.394-.005-.732-.126-1.004-.368a1.215 1.215 0 0 1-.412-.918v-3.54c0-.37.137-.677.412-.91.272-.258.61-.384 1.005-.38m-.884-2.454c-.984 0-1.82.316-2.51.942-.688.63-1.03 1.387-1.03 2.278v4.587c0 .89.342 1.65 1.03 2.278.69.63 1.526.94 2.51.94h8.618c.99 0 1.827-.312 2.514-.94.692-.627 1.035-1.388 1.03-2.278V6.71c.005-.892-.338-1.65-1.03-2.28-.687-.624-1.522-.94-2.51-.94h-8.62z"/><path fill="#F4BB00" d="M43.517 8.89L48.85 0h2.803v1.125l-5.812 9.588h-1.25z"/><path fill="#FFF" d="M41.934 14.516l-6.004-9.9V3.49h2.8l4.96 8.29.003-.006.855 1.434v1.308z"/><path fill="#F4BB00" d="M41.092 4.765l.742-1.244h2.804v1.127l-1.858 2.99z"/><path fill="#FFF" d="M43.12 12.06h4.267v2.457H43.12z"/></g></svg>